<svg width="150" height="150" viewBox="0 0 150 150" fill="none" xmlns="http://www.w3.org/2000/svg">
<g clip-path="url(#clip0_1145_1014)">
<path d="M142.324 64.8833V134.65H144.817C146.192 134.65 147.308 135.766 147.308 137.141V144.617C147.308 145.992 146.192 147.107 144.817 147.107H5.28317C4.62265 147.107 3.98922 146.845 3.52216 146.378C3.0551 145.911 2.79264 145.277 2.79248 144.617V137.141C2.79248 135.766 3.90789 134.65 5.28317 134.65H7.77562V64.8833H142.324Z" fill="#FFC17D"/>
<path d="M57.6079 2.59277H97.4748C112.624 2.59277 124.883 8.17362 124.883 15.0503C124.811 16.1938 124.49 17.3078 123.944 18.3147C123.397 19.3217 122.637 20.1974 121.718 20.8811C121.159 21.349 120.708 21.9316 120.394 22.5893C120.081 23.247 119.912 23.9645 119.9 24.6931V49.9343H80.0329L57.6079 2.59277Z" fill="#937966"/>
<path d="M85.0167 15.0506C84.9444 16.194 84.624 17.3078 84.0776 18.3148C83.5311 19.3217 82.7719 20.1974 81.8526 20.8811C81.2937 21.3488 80.8419 21.9313 80.528 22.589C80.2141 23.2468 80.0455 23.9644 80.0335 24.6931V49.9343H35.1826V24.6931C35.1706 23.9645 35.0021 23.247 34.6883 22.5892C34.3746 21.9315 33.9231 21.349 33.3644 20.8811C32.445 20.1974 31.6855 19.3217 31.1389 18.3147C30.5923 17.3078 30.2716 16.1938 30.1992 15.0503C30.1992 8.17391 42.4585 2.59277 57.6079 2.59277C72.7574 2.59277 85.0164 8.17362 85.0164 15.0503L85.0167 15.0506Z" fill="#F4D4BB"/>
<path d="M5.28317 134.65H90V147.108H5.28317C4.6226 147.108 3.98913 146.846 3.52206 146.378C3.05499 145.911 2.79256 145.278 2.79248 144.617V137.142C2.79248 135.766 3.90789 134.651 5.28317 134.651V134.65Z" fill="#937966"/>
<path d="M22.7248 87.3096H75.0498C76.4251 87.3096 77.5419 88.425 77.5419 89.8006V122.192C77.5419 122.853 77.2793 123.487 76.8119 123.955C76.3446 124.422 75.7107 124.684 75.0498 124.685H22.7248C22.3975 124.685 22.0735 124.62 21.7711 124.495C21.4688 124.37 21.1941 124.186 20.9627 123.955C20.7313 123.723 20.5477 123.448 20.4225 123.146C20.2973 122.844 20.2329 122.52 20.2329 122.192V89.8006C20.2329 88.4253 21.348 87.3096 22.7248 87.3096Z" fill="#5EC4E8"/>
<path d="M129.867 134.65H144.817C146.192 134.65 147.307 135.766 147.307 137.142V144.617C147.307 145.993 146.192 147.108 144.817 147.108H129.867V134.65Z" fill="#937966"/>
<path d="M92.4919 87.3096H127.375C127.702 87.3095 128.026 87.3739 128.329 87.499C128.631 87.6241 128.906 87.8076 129.137 88.0389C129.368 88.2702 129.552 88.5449 129.677 88.8471C129.803 89.1494 129.867 89.4734 129.867 89.8006V147.109H90V89.8006C90 88.4253 91.1151 87.3096 92.4919 87.3096Z" fill="#5EC4E8"/>
<path d="M22.7249 59.9004V70.1157L14.8265 77.0427C14.5961 77.2361 14.3049 77.3421 14.0041 77.3421C13.7033 77.3421 13.4121 77.2361 13.1817 77.0427L5.70639 70.4898C5.57013 70.3732 5.46146 70.2278 5.38824 70.0641C5.31502 69.9004 5.27907 69.7224 5.28301 69.5431V59.9007L22.7249 59.9004Z" fill="#F77A8E"/>
<path d="M40.1672 59.9004V70.1157L32.2689 77.0427C32.0385 77.2361 31.7473 77.3421 31.4465 77.3421C31.1456 77.3421 30.8544 77.2361 30.6241 77.0427L22.7251 70.1157V59.9007L40.1672 59.9004Z" fill="#FFDA88"/>
<path d="M57.608 59.9004V70.1157L49.7093 77.0427C49.4791 77.2361 49.188 77.3422 48.8873 77.3422C48.5866 77.3422 48.2956 77.2361 48.0654 77.0427L40.167 70.1157V59.9007L57.608 59.9004Z" fill="#F77A8E"/>
<path d="M75.0498 59.9004V70.1157L67.1514 77.0427C66.921 77.2362 66.6297 77.3423 66.3288 77.3423C66.028 77.3423 65.7367 77.2362 65.5063 77.0427L57.6079 70.1157V59.9007L75.0498 59.9004Z" fill="#FFDA88"/>
<path d="M92.4917 59.9004V70.1157L84.5933 77.0427C84.3629 77.2361 84.0717 77.3421 83.7709 77.3421C83.4701 77.3421 83.1789 77.2361 82.9485 77.0427L75.0498 70.1157V59.9007L92.4917 59.9004Z" fill="#F77A8E"/>
<path d="M109.933 59.9004V70.1157L102.034 77.0427C101.804 77.2361 101.513 77.3422 101.213 77.3422C100.912 77.3422 100.621 77.2361 100.391 77.0427L92.4922 70.1157V59.9007L109.933 59.9004Z" fill="#FFDA88"/>
<path d="M127.375 59.9004V70.1157L119.476 77.0427C119.245 77.236 118.954 77.342 118.654 77.342C118.353 77.342 118.062 77.236 117.831 77.0427L109.933 70.1157V59.9007L127.375 59.9004Z" fill="#F77A8E"/>
<path d="M144.817 59.9004V69.5431C144.821 69.7224 144.785 69.9004 144.712 70.0641C144.638 70.2278 144.53 70.3732 144.393 70.4898L136.918 77.0427C136.688 77.2361 136.397 77.3421 136.096 77.3421C135.795 77.3421 135.504 77.2361 135.273 77.0427L127.375 70.1157V59.9007L144.817 59.9004Z" fill="#FFDA88"/>
<path d="M102.458 112.226H107.442C108.817 112.226 109.933 113.341 109.933 114.718V127.176C109.933 127.836 109.67 128.47 109.203 128.937C108.736 129.405 108.103 129.668 107.442 129.668H102.458C102.131 129.668 101.807 129.603 101.505 129.478C101.202 129.353 100.928 129.169 100.696 128.938C100.465 128.706 100.281 128.432 100.156 128.129C100.031 127.827 99.9663 127.503 99.9663 127.176V114.718C99.9663 114.391 100.031 114.067 100.156 113.764C100.281 113.462 100.465 113.187 100.696 112.956C100.928 112.724 101.202 112.541 101.505 112.416C101.807 112.29 102.131 112.226 102.458 112.226V112.226Z" fill="#F4F6F8"/>
<path d="M30.1992 99.7668C30.1992 97.0145 32.4303 94.7837 35.1826 94.7837C37.935 94.7837 40.167 97.0145 40.167 99.7668V104.75H30.1992V99.7668ZM50.1335 99.7668C50.1335 97.0145 52.3643 94.7837 55.1167 94.7837C57.869 94.7837 60.1001 97.0145 60.1001 99.7668V104.75H50.1335V99.7668ZM37.6748 119.701C37.6748 116.949 39.9056 114.718 42.6579 114.718C45.4103 114.718 47.6414 116.949 47.6414 119.701V124.684H37.6748V119.701ZM57.6079 119.701C57.6079 116.949 59.8388 114.718 62.5911 114.718C65.3434 114.718 67.5742 116.949 67.5742 119.701V124.684H57.6079V119.701Z" fill="#FFDA88"/>
<path d="M144.817 59.9008H127.375L119.9 47.4424H132.458C133.205 47.444 133.941 47.6127 134.614 47.9362C135.286 48.2597 135.878 48.7297 136.345 49.3117L144.817 59.9008Z" fill="#FDD267"/>
<path d="M127.375 59.9008H109.933L102.458 47.4424H119.901L127.375 59.9008Z" fill="#EB6371"/>
<path d="M109.932 59.9008H92.4917L87.5083 47.4424H102.458L109.932 59.9008Z" fill="#FDD267"/>
<path d="M92.4917 59.9008H75.0498V47.4424H87.5085L92.4917 59.9008Z" fill="#EB6371"/>
<path d="M75.0498 47.4417V59.9001H57.6079L62.591 47.4414L75.0498 47.4417Z" fill="#FDD267"/>
<path d="M62.5913 47.4417L57.6082 59.9001H40.1675L47.6416 47.4414L62.5913 47.4417Z" fill="#EB6371"/>
<path d="M47.6414 47.4424L44.652 52.4255L40.167 59.9011H22.7251L30.1992 47.4424H47.6414Z" fill="#FDD267"/>
<path d="M30.199 47.4417L22.7249 59.9001H5.28271L13.754 49.3107C14.2213 48.7287 14.813 48.2587 15.4856 47.9352C16.1583 47.6118 16.8949 47.443 17.6413 47.4414L30.199 47.4417Z" fill="#EB6371"/>
<path d="M37.6748 127.176H75.0498C77.8022 127.176 80.033 124.945 80.033 122.192V89.8005C80.033 87.0482 77.8022 84.8174 75.0498 84.8174H22.7248C19.9728 84.8174 17.7417 87.0482 17.7417 89.8005V122.192C17.7417 124.945 19.9728 127.176 22.7251 127.176L37.6748 127.176ZM40.167 122.192V119.701C40.167 119.374 40.2314 119.05 40.3567 118.748C40.4819 118.446 40.6654 118.171 40.8968 117.939C41.1282 117.708 41.4029 117.525 41.7052 117.399C42.0075 117.274 42.3315 117.21 42.6587 117.21C42.9859 117.21 43.3099 117.274 43.6122 117.399C43.9146 117.525 44.1892 117.708 44.4206 117.939C44.652 118.171 44.8355 118.446 44.9608 118.748C45.086 119.05 45.1504 119.374 45.1504 119.701V122.192L40.167 122.192ZM60.1001 122.192V119.701C60.1001 119.041 60.3626 118.407 60.8299 117.94C61.2972 117.472 61.9309 117.21 62.5917 117.21C63.2525 117.21 63.8862 117.472 64.3535 117.94C64.8208 118.407 65.0833 119.041 65.0833 119.701V122.192L60.1001 122.192ZM70.0667 122.192V119.701C70.0667 115.572 66.7202 112.226 62.5911 112.226C58.4632 112.226 55.1167 115.572 55.1167 119.701V122.192H50.1336V119.701C50.1336 115.572 46.787 112.226 42.658 112.226C38.5304 112.226 35.1827 115.572 35.1827 119.701V122.192H22.7248V109.734H75.0498V122.192H70.0667ZM37.6748 104.75H32.6917V102.26C32.6917 101.599 32.9542 100.965 33.4215 100.498C33.8887 100.03 34.5225 99.768 35.1833 99.768C35.8441 99.768 36.4778 100.03 36.9451 100.498C37.4123 100.965 37.6748 101.599 37.6748 102.26V104.75ZM57.608 104.75H52.6246V102.26C52.621 101.93 52.6828 101.603 52.8064 101.298C52.93 100.992 53.113 100.714 53.3447 100.48C53.5765 100.246 53.8524 100.06 54.1564 99.933C54.4605 99.8061 54.7868 99.7407 55.1163 99.7407C55.4458 99.7407 55.772 99.8061 56.0761 99.933C56.3802 100.06 56.6561 100.246 56.8878 100.48C57.1195 100.714 57.3025 100.992 57.4261 101.298C57.5497 101.603 57.6116 101.93 57.608 102.26V104.75ZM75.0498 89.8008V104.751H62.5911V102.26C62.5911 98.1308 59.2449 94.7842 55.1167 94.7842C50.9879 94.7842 47.6414 98.1305 47.6414 102.26V104.751H42.658V102.26C42.658 98.1308 39.3117 94.7842 35.1827 94.7842C31.0548 94.7842 27.7083 98.1305 27.7083 102.26V104.751H22.7251V89.8008H75.0498Z" fill="#232323"/>
<path d="M144.817 132.158V73.4298L146.02 72.376C146.425 72.022 146.751 71.5849 146.973 71.0943C147.195 70.6038 147.309 70.0712 147.307 69.5326V59.9004C147.294 59.7953 147.273 59.6912 147.246 59.5888C147.229 59.4196 147.195 59.2526 147.143 59.0904C147.083 58.9316 147.006 58.7801 146.912 58.6387C146.869 58.5389 146.819 58.4425 146.762 58.3502L138.291 47.7631C137.594 46.8843 136.706 46.1747 135.696 45.6876C134.685 45.2005 133.577 44.9486 132.455 44.9507H122.391V24.6923C122.405 24.3213 122.498 23.9576 122.663 23.6253C122.829 23.293 123.063 22.9997 123.351 22.7651C124.544 21.8509 125.523 20.6865 126.218 19.3536C126.913 18.0206 127.308 16.5516 127.375 15.0498C127.375 6.52626 114.52 0.100098 97.4751 0.100098H57.6079C40.5626 0.100098 27.7082 6.52626 27.7082 15.0501C27.773 16.5533 28.1668 18.024 28.8617 19.3585C29.5566 20.693 30.5357 21.8589 31.7301 22.7739C32.0166 23.0078 32.2504 23.2996 32.4161 23.6302C32.5818 23.9609 32.6757 24.3228 32.6917 24.6923V44.9507H17.6447C16.5231 44.9478 15.4153 45.1986 14.4042 45.6843C13.3931 46.1699 12.5049 46.8779 11.806 47.7553L3.33506 58.3423C3.27782 58.4349 3.22784 58.5317 3.18556 58.632C3.09213 58.7733 3.01446 58.924 2.95401 59.0825C2.90276 59.2447 2.86831 59.4117 2.85123 59.581C2.82495 59.6861 2.80451 59.7932 2.79196 59.9004V69.5326C2.79022 70.0712 2.90431 70.6038 3.12648 71.0944C3.34866 71.585 3.67372 72.0221 4.07964 72.376L5.28294 73.4301V94.7832C5.27938 95.1127 5.34119 95.4396 5.46481 95.7451C5.58843 96.0505 5.7714 96.3284 6.00314 96.5627C6.23487 96.7969 6.51076 96.9829 6.81484 97.1098C7.11892 97.2367 7.44515 97.3021 7.77466 97.3021C8.10416 97.3021 8.4304 97.2367 8.73448 97.1098C9.03856 96.9829 9.31445 96.7969 9.54618 96.5627C9.77791 96.3284 9.96088 96.0505 10.0845 95.7451C10.2081 95.4396 10.2699 95.1127 10.2664 94.7832V77.7846L11.5552 78.9117C12.2347 79.5015 13.1043 79.8262 14.004 79.8262C14.9038 79.8262 15.7733 79.5015 16.4528 78.9117L22.7248 73.4298L28.9959 78.9114C29.6757 79.5013 30.5454 79.826 31.4454 79.826C32.3454 79.826 33.2152 79.5013 33.895 78.9114L40.167 73.4298L46.4381 78.9114C47.1178 79.5012 47.9875 79.8259 48.8874 79.8259C49.7874 79.8259 50.6571 79.5012 51.3368 78.9114L57.6079 73.4298L63.8799 78.9114C64.5597 79.5012 65.4294 79.8259 66.3293 79.8259C67.2292 79.8259 68.0989 79.5012 68.7787 78.9114L75.0498 73.4301L81.3209 78.9117C82.0007 79.5015 82.8704 79.8262 83.7703 79.8262C84.6702 79.8262 85.5399 79.5015 86.2197 78.9117L92.4917 73.4301L98.7628 78.9117C99.4425 79.5015 100.312 79.8262 101.212 79.8262C102.112 79.8262 102.982 79.5015 103.662 78.9117L109.933 73.4301L116.205 78.9117C116.884 79.5016 117.754 79.8263 118.654 79.8263C119.554 79.8263 120.424 79.5016 121.104 78.9117L127.375 73.4301L133.647 78.9117C134.326 79.5015 135.196 79.8263 136.095 79.8263C136.995 79.8263 137.865 79.5015 138.544 78.9117L139.833 77.7846V132.158H132.358V112.225C132.358 110.85 131.243 109.733 129.867 109.733C129.206 109.733 128.572 109.996 128.105 110.463C127.637 110.93 127.375 111.564 127.375 112.225V144.617H92.4917V89.7998H127.375V97.2754C127.375 98.6507 128.49 99.7664 129.867 99.7664C131.243 99.7664 132.358 98.651 132.358 97.2754V89.7998C132.358 87.0475 130.127 84.8167 127.375 84.8167H92.4917C89.7396 84.8167 87.5085 87.0475 87.5085 89.7998V132.158H10.2664V109.733C10.2664 108.357 9.15096 107.242 7.77539 107.242C7.44819 107.242 7.12417 107.306 6.82184 107.431C6.5195 107.556 6.24477 107.74 6.01333 107.971C5.78188 108.202 5.59826 108.477 5.47294 108.779C5.34762 109.081 5.28306 109.405 5.28294 109.733V132.158C2.53092 132.158 0.299805 134.389 0.299805 137.141V144.617C0.299805 147.369 2.53063 149.6 5.28294 149.6H144.817C147.569 149.6 149.8 147.369 149.8 144.617V137.141C149.8 134.389 147.569 132.158 144.817 132.158ZM134.398 50.8702L139.631 57.4079H128.785L124.299 49.9338H132.455C132.828 49.9328 133.197 50.0165 133.534 50.1787C133.871 50.3409 134.166 50.5773 134.398 50.8702H134.398ZM35.1824 49.9338H43.2411L38.7561 57.4082H27.1254L31.6104 49.9338H35.1824ZM49.052 49.9338H58.9114L55.9208 57.4082H44.5664L49.052 49.9338ZM64.2779 49.9338H72.5577V57.4082H61.2882L64.2779 49.9338ZM77.542 49.9338H85.8217L88.8111 57.4082H77.542V49.9338ZM94.1788 57.4082L91.1882 49.9338H101.047L105.533 57.4082H94.1788ZM111.344 57.4082L106.859 49.9338H118.489L122.974 57.4082H111.344ZM97.4748 5.08324C111.737 5.08324 122.391 10.3438 122.391 15.0498C122.298 15.8309 122.045 16.5845 121.648 17.264C121.252 17.9435 120.72 18.5343 120.086 18.9999C119.258 19.7019 118.591 20.5734 118.129 21.5554C117.667 22.5375 117.421 23.6073 117.408 24.6926V44.9507H82.5254V24.6923C82.5389 24.3213 82.6314 23.9574 82.7968 23.6251C82.9622 23.2927 83.1967 22.9995 83.4846 22.7651C84.6778 21.8508 85.6564 20.6862 86.3515 19.3534C87.0467 18.0205 87.4416 16.5516 87.5085 15.0498C87.5085 11.1459 84.7872 7.69189 80.2248 5.08324H97.4748ZM34.9931 18.994C34.3598 18.5293 33.8287 17.9394 33.4328 17.2609C33.0369 16.5824 32.7846 15.8298 32.6917 15.0498C32.6917 10.3438 43.3459 5.08324 57.6079 5.08324C71.8709 5.08324 82.5254 10.3438 82.5254 15.0498C82.4317 15.8309 82.1787 16.5844 81.7822 17.2638C81.3857 17.9432 80.854 18.5341 80.2201 18.9999C79.392 19.7015 78.7243 20.573 78.2623 21.5551C77.8002 22.5373 77.5546 23.6072 77.542 24.6926V44.9507H37.6748V24.6923C37.6613 23.6059 37.415 22.5351 36.9524 21.5521C36.4898 20.5691 35.8217 19.6968 34.9931 18.994ZM15.6977 50.8702C15.9312 50.5781 16.2275 50.3422 16.5645 50.1801C16.9015 50.018 17.2707 49.9339 17.6447 49.9338H25.8001L21.3142 57.4082H10.4681L15.6977 50.8702ZM14.0042 74.434L7.77539 68.9875V62.3914H20.2329V68.9875L14.0042 74.434ZM31.446 74.434L25.2161 68.9875V62.3914H37.6748V68.9875L31.446 74.434ZM48.8867 74.434L42.6579 68.9875V62.3914H55.1167V68.9875L48.8867 74.434ZM66.3289 74.434L60.0998 68.9872V62.3911H72.5574V68.9872L66.3289 74.434ZM83.7707 74.434L77.542 68.9875V62.3914H89.9998V68.9875L83.7707 74.434ZM101.213 74.434L94.9829 68.9875V62.3914H107.442V68.9875L101.213 74.434ZM118.654 74.434L112.425 68.9872V62.3911H124.884V68.9872L118.654 74.434ZM136.095 74.434L129.867 68.9875V62.3914H142.324V68.9875L136.095 74.434ZM5.28294 137.141H87.5085V144.617H5.28294V137.141ZM132.358 144.617V137.141H144.817V144.617H132.358Z" fill="#232323"/>
<path d="M102.458 109.733C99.7057 109.733 97.4749 111.965 97.4749 114.717V127.175C97.4749 129.927 99.7057 132.158 102.458 132.158H107.441C110.193 132.158 112.425 129.927 112.425 127.175V114.717C112.425 111.965 110.194 109.733 107.441 109.733L102.458 109.733ZM102.458 127.175V114.717H107.441V127.175L102.458 127.175ZM45.8801 21.7929C46.3508 22.2433 46.979 22.4915 47.6304 22.4844C48.2818 22.4772 48.9045 22.2153 49.3651 21.7547C49.8258 21.294 50.0877 20.6713 50.0948 20.02C50.102 19.3686 49.8537 18.7403 49.4033 18.2697L46.9112 15.7772C46.4413 15.3233 45.8119 15.0722 45.1586 15.078C44.5053 15.0837 43.8804 15.346 43.4187 15.8082C42.9566 16.2699 42.6944 16.8947 42.6886 17.548C42.6828 18.2012 42.9339 18.8305 43.3877 19.3004L45.8801 21.7929ZM45.8801 30.7293C45.6488 30.9606 45.4652 31.2353 45.34 31.5375C45.2148 31.8398 45.1503 32.1638 45.1503 32.491C45.1503 32.8182 45.2148 33.1422 45.34 33.4445C45.4652 33.7467 45.6488 34.0214 45.8801 34.2527L48.3708 36.7449C48.8415 37.1953 49.4697 37.4435 50.1211 37.4364C50.7725 37.4293 51.3952 37.1673 51.8558 36.7067C52.3165 36.2461 52.5784 35.6234 52.5855 34.972C52.5927 34.3206 52.3444 33.6923 51.894 33.2217L49.4033 30.7293C48.9358 30.2626 48.3023 30.0006 47.6417 30.0006C46.9812 30.0006 46.3477 30.2626 45.8801 30.7293ZM58.3377 29.2693C58.8077 29.7231 59.4371 29.9743 60.0904 29.9688C60.7438 29.9633 61.3688 29.7015 61.8311 29.2398C62.2929 28.7776 62.5548 28.1525 62.5604 27.4991C62.5659 26.8457 62.3148 26.2162 61.8609 25.7461L59.3699 23.2551C58.8999 22.8012 58.2704 22.55 57.617 22.5555C56.9636 22.561 56.3385 22.8229 55.8762 23.2846C55.4144 23.7469 55.1525 24.372 55.1469 25.0254C55.1414 25.6788 55.3925 26.3083 55.8464 26.7783L58.3377 29.2693ZM65.813 33.2238C65.5816 33.4551 65.3981 33.7298 65.2729 34.032C65.1476 34.3343 65.0832 34.6583 65.0832 34.9855C65.0832 35.3127 65.1476 35.6367 65.2729 35.939C65.3981 36.2412 65.5816 36.5159 65.813 36.7472L68.304 39.2394C68.7746 39.6898 69.4029 39.938 70.0543 39.9309C70.7056 39.9238 71.3283 39.6618 71.789 39.2012C72.2496 38.7406 72.5115 38.1179 72.5187 37.4665C72.5258 36.8151 72.2776 36.1868 71.8272 35.7162L69.3365 33.2238C69.1051 32.9924 68.8305 32.8088 68.5282 32.6836C68.2259 32.5584 67.9019 32.4939 67.5747 32.4939C67.2475 32.4939 66.9236 32.5584 66.6213 32.6836C66.319 32.8088 66.0443 32.9924 65.813 33.2238ZM65.813 19.3007C66.1201 19.6189 66.5064 19.8495 66.9322 19.969C67.3579 20.0885 67.8078 20.0924 68.2357 19.9805C68.6636 19.8684 69.054 19.6446 69.3669 19.3319C69.6798 19.0192 69.9039 18.6289 70.0162 18.2011C70.1279 17.7731 70.1238 17.3231 70.0043 16.8973C69.8849 16.4714 69.6544 16.085 69.3365 15.7775L66.844 13.2862C66.3742 12.8325 65.745 12.5814 65.0918 12.587C64.4387 12.5926 63.8138 12.8544 63.3518 13.316C62.89 13.7779 62.628 14.4027 62.6222 15.0558C62.6164 15.7089 62.8673 16.3382 63.3208 16.8083L65.813 19.3007ZM89.9996 27.5083H109.932C110.263 27.5134 110.591 27.4527 110.898 27.3297C111.204 27.2068 111.484 27.024 111.719 26.7922C111.954 26.5603 112.141 26.2839 112.269 25.9791C112.397 25.6743 112.462 25.3472 112.462 25.0167C112.462 24.6863 112.397 24.3591 112.269 24.0543C112.141 23.7495 111.954 23.4732 111.719 23.2413C111.484 23.0094 111.204 22.8267 110.898 22.7038C110.591 22.5808 110.263 22.5201 109.932 22.5252H89.9993C89.3387 22.5252 88.7051 22.7877 88.238 23.2548C87.7708 23.722 87.5084 24.3555 87.5083 25.0162C87.5082 25.3434 87.5726 25.6674 87.6977 25.9697C87.8229 26.272 88.0063 26.5467 88.2377 26.7781C88.469 27.0095 88.7436 27.1931 89.0459 27.3184C89.3481 27.4437 89.6721 27.5082 89.9993 27.5083H89.9996Z" fill="#232323"/>
</g>
<defs>
<clipPath id="clip0_1145_1014">
<rect width="149.5" height="149.5" fill="white" transform="translate(0.299805 0.100098)"/>
</clipPath>
</defs>
</svg>
