<svg width="165" height="165" viewBox="0 0 165 165" fill="none" xmlns="http://www.w3.org/2000/svg">
<g clip-path="url(#clip0_1145_1132)">
<path d="M70.6348 3.5293C89.5742 3.5293 87.7812 29.1968 87.7812 60.8591C87.7812 92.5213 89.575 118.19 70.6348 118.19C51.6945 118.19 27.7671 92.5221 27.7671 60.8591C27.7671 29.196 51.6945 3.5293 70.6348 3.5293Z" fill="#FBB03B"/>
<path d="M86.3528 101.127C84.4692 111.665 80.181 118.19 70.6283 118.19C51.6817 118.19 27.7671 92.5272 27.7671 60.8594C27.8326 44.704 33.8934 29.1483 44.7749 17.207C40.7845 25.7464 38.7055 35.0536 38.6832 44.4792C38.6832 76.1479 62.5978 101.81 81.5444 101.81C83.1732 101.837 84.796 101.606 86.3528 101.127Z" fill="#F7931E"/>
<path d="M28.0124 55.3991H41.4172C42.8653 55.3991 44.2541 55.9743 45.2781 56.9983C46.302 58.0222 46.8773 59.411 46.8773 60.8591C46.8773 61.5762 46.736 62.2862 46.4617 62.9486C46.1873 63.611 45.7851 64.213 45.2781 64.72C44.771 65.227 44.1691 65.6292 43.5067 65.9036C42.8442 66.1779 42.1342 66.3192 41.4172 66.3192H28.0124C27.8521 64.5173 27.7671 62.6882 27.7671 60.8591C27.7671 59.03 27.8488 57.2009 28.0124 55.3991ZM31.6433 82.6993H49.6073C51.0554 82.6993 52.4442 83.2746 53.4681 84.2985C54.4921 85.3225 55.0674 86.7113 55.0674 88.1594C55.0674 89.6075 54.4921 90.9963 53.4681 92.0202C52.4442 93.0442 51.0554 93.6194 49.6073 93.6194H36.7491C34.7101 90.1467 33.0007 86.4907 31.6433 82.6993ZM36.7491 28.0996H49.6073C51.0554 28.0996 52.4442 28.6749 53.4681 29.6988C54.4921 30.7228 55.0674 32.1116 55.0674 33.5597C55.0674 35.0078 54.4921 36.3965 53.4681 37.4205C52.4442 38.4445 51.0554 39.0197 49.6073 39.0197H31.6433C33.0004 35.2282 34.7098 31.5722 36.7491 28.0996Z" fill="#F2E6C7"/>
<path d="M46.8773 60.8597C46.867 62.3047 46.2884 63.6875 45.2667 64.7092C44.245 65.7309 42.8621 66.3095 41.4172 66.3198H28.0132C27.8486 64.5044 27.7665 62.6825 27.7671 60.8597H38.6872C40.009 60.851 41.2833 60.3659 42.2762 59.4934C43.2692 58.6209 43.9141 57.4195 44.0927 56.1098C44.9367 56.5831 45.6395 57.2726 46.1289 58.1073C46.6182 58.9421 46.8766 59.8921 46.8773 60.8597ZM55.0674 88.16C55.0567 89.6048 54.478 90.9874 53.4563 92.009C52.4347 93.0307 51.0521 93.6094 49.6073 93.6201H36.7483C35.4851 91.4707 34.3546 89.246 33.3634 86.9585C33.5608 87.3703 33.7794 87.7716 34.0183 88.1608H46.8773C48.1989 88.1519 49.473 87.6667 50.4658 86.7942C51.4586 85.9217 52.1034 84.7205 52.282 83.4109C53.126 83.884 53.8289 84.5733 54.3184 85.4079C54.8079 86.2425 55.0664 87.1924 55.0674 88.16ZM55.0674 33.5603C55.0567 35.0051 54.478 36.3876 53.4563 37.4093C52.4347 38.4309 51.0521 39.0096 49.6073 39.0203H31.6433C32.3113 37.1692 33.0582 35.3475 33.882 33.5603H46.8773C48.1986 33.5508 49.4723 33.0652 50.4646 32.1926C51.4569 31.32 52.1013 30.1189 52.2796 28.8096C53.1243 29.2825 53.8278 29.9719 54.3178 30.8068C54.8077 31.6418 55.0665 32.5922 55.0674 33.5603Z" fill="#E0CB9D"/>
<path d="M108.302 150.949C124.133 150.949 136.967 117.948 136.967 77.2392C136.967 36.5303 124.133 3.5293 108.302 3.5293C92.4701 3.5293 79.6362 36.5303 79.6362 77.2392C79.6362 117.948 92.4701 150.949 108.302 150.949Z" fill="#FBB03B"/>
<path d="M125.964 135.225C121.105 145.08 114.99 150.95 108.302 150.95C92.4672 150.95 79.6362 117.944 79.6362 77.2396C79.6362 42.5139 88.9733 13.3838 101.558 5.60889C94.8405 19.0907 90.5563 40.0572 90.5563 63.5895C90.5563 104.294 103.387 137.299 119.222 137.299C121.622 137.269 123.962 136.549 125.964 135.225Z" fill="#F7931E"/>
<path d="M22.3066 74.5096L30.8831 84.1841L38.6908 75.3888L39.4547 74.5071L40.3011 75.469L48.0271 84.1817L55.071 76.2385L56.5995 74.5071L58.2907 76.406L65.1703 84.1809L71.4223 77.1177L73.7427 74.5063L76.282 77.3646L82.3424 84.1777L87.8297 77.9658L90.9132 74.5096L94.2981 78.3297L99.4856 84.1809L104.208 78.8491V161.87H25.0367C24.3126 161.87 23.6182 161.582 23.1062 161.07C22.5943 160.558 22.3066 159.864 22.3066 159.14V74.5096Z" fill="#F2E6C7"/>
<path d="M104.207 145.49V161.87H25.0367C24.3126 161.87 23.6182 161.583 23.1062 161.071C22.5943 160.559 22.3066 159.864 22.3066 159.14V74.5103L30.8831 84.1744L38.6908 75.3839L39.4555 74.5103L40.3011 75.4657L44.1485 79.8068V112.731C44.1487 121.419 47.6002 129.751 53.7437 135.895C59.8873 142.038 68.2197 145.49 76.908 145.49H104.207Z" fill="#E0CB9D"/>
<path d="M142.427 74.5103V159.14C142.427 159.864 142.14 160.559 141.628 161.071C141.116 161.583 140.421 161.87 139.697 161.87H104.207V78.853L108.054 74.5103L116.654 84.1848L125.23 74.5103L133.83 84.1848L142.427 74.5103Z" fill="#F2E6C7"/>
<path d="M142.427 145.49V159.14C142.427 159.864 142.14 160.559 141.628 161.071C141.116 161.583 140.421 161.87 139.697 161.87H104.207V78.8506L108.054 74.5103L116.654 84.1744L120.586 79.7515V123.651C120.585 126.519 121.149 129.36 122.247 132.01C123.344 134.66 124.953 137.068 126.981 139.096C129.01 141.124 131.418 142.733 134.068 143.83C136.719 144.927 139.559 145.491 142.427 145.49Z" fill="#E0CB9D"/>
<path d="M93.2864 129.109C93.2864 139.664 79.8414 140.03 63.2561 140.03C46.6707 140.03 33.2266 139.664 33.2266 129.109C33.2266 118.555 46.6683 107.27 63.2601 107.27C79.8518 107.27 93.2864 118.556 93.2864 129.109Z" fill="#FBB03B"/>
<path d="M93.151 130.829C91.7314 139.705 78.9005 140.026 63.2609 140.026C46.6628 140.026 33.2314 139.672 33.2314 129.106C33.2314 122.008 39.2918 114.583 48.3003 110.515C45.6552 113.764 44.1508 117.367 44.1508 120.917C44.1508 131.482 57.5821 131.836 74.1802 131.836C81.3844 131.839 87.9915 131.785 93.151 130.829Z" fill="#F7931E"/>
<path d="M27.2642 67.776C27.5017 68.1609 27.8327 68.4795 28.2263 68.7021C28.6199 68.9248 29.0635 69.0444 29.5157 69.0497H32.2722C32.9962 69.0497 33.6906 68.762 34.2026 68.2501C34.7146 67.7381 35.0022 67.0437 35.0022 66.3196C35.0022 65.5956 34.7146 64.9012 34.2026 64.3892C33.6906 63.8772 32.9962 63.5896 32.2722 63.5896H30.6002C30.5545 62.6823 30.4968 61.7765 30.4968 60.8596C30.4968 59.9426 30.5841 59.0409 30.6242 58.1296H41.4169C42.1407 58.1304 42.8346 58.4183 43.3464 58.9301C43.8582 59.4419 44.1461 60.1358 44.1469 60.8596C44.1402 61.2548 44.05 61.6441 43.8823 62.002C43.7146 62.3598 43.4732 62.6783 43.1738 62.9364C42.8883 63.1588 42.6499 63.4359 42.4724 63.7514C42.2949 64.0669 42.182 64.4145 42.1401 64.7741C42.0982 65.1336 42.1283 65.4979 42.2285 65.8457C42.3287 66.1936 42.4971 66.518 42.7239 66.8001C42.9506 67.0823 43.2313 67.3165 43.5494 67.4892C43.8675 67.6619 44.2168 67.7696 44.577 67.806C44.9371 67.8424 45.3009 67.8069 45.6472 67.7014C45.9935 67.596 46.3153 67.4227 46.594 67.1917C46.7963 67.0263 46.9895 66.8499 47.1727 66.6635C47.9479 65.9095 48.5631 65.0069 48.9814 64.0097C49.3997 63.0124 49.6124 61.941 49.607 60.8596C49.6044 58.6882 48.7407 56.6065 47.2053 55.0711C45.6699 53.5357 43.5882 52.672 41.4169 52.6695H31.1011C31.5927 48.962 32.4215 45.3071 33.5771 41.7502H49.6078C51.7799 41.7502 53.8631 40.8873 55.399 39.3514C56.935 37.8154 57.7978 35.7323 57.7978 33.5601C57.7978 31.388 56.935 29.3048 55.399 27.7689C53.8631 26.2329 51.7799 25.37 49.6078 25.37H41.699C50.067 13.464 61.5723 6.25986 70.628 6.25986C75.2601 6.25986 78.4301 8.01121 80.6047 11.7728C80.784 12.0833 81.0226 12.3555 81.3071 12.5738C81.5915 12.7921 81.9161 12.9522 82.2625 13.045C82.6088 13.1378 82.97 13.1615 83.3255 13.1147C83.6809 13.0679 84.0237 12.9516 84.3342 12.7723C84.6448 12.5931 84.9169 12.3544 85.1352 12.07C85.3535 11.7855 85.5136 11.4609 85.6064 11.1146C85.6992 10.7682 85.7229 10.407 85.6761 10.0516C85.6294 9.69608 85.513 9.3533 85.3338 9.04279C82.1709 3.57231 77.2238 0.799805 70.628 0.799805C49.9789 0.799805 25.0367 27.5903 25.0367 60.8596C25.0367 62.3769 25.0936 63.8934 25.2082 65.3842C25.2561 65.9484 25.4805 66.4831 25.8496 66.9125C26.2187 67.3418 26.7136 67.644 27.2642 67.776ZM52.337 33.5601C52.3361 34.2839 52.0482 34.9778 51.5364 35.4896C51.0246 36.0014 50.3307 36.2893 49.607 36.2901H35.6538C36.4568 34.4272 37.3511 32.605 38.3334 30.8301H49.607C50.3308 30.8307 51.0248 31.1186 51.5367 31.6304C52.0485 32.1422 52.3363 32.8363 52.337 33.5601ZM84.5931 26.5643C80.7217 37.4259 78.1905 50.8436 77.2663 65.381C77.2435 65.7389 77.2914 66.0977 77.4072 66.437C77.5231 66.7764 77.7047 67.0895 77.9416 67.3587C78.1785 67.6278 78.4661 67.8477 78.788 68.0056C79.1099 68.1636 79.4598 68.2566 79.8176 68.2794C79.8769 68.2794 79.9354 68.285 79.9939 68.285C80.6881 68.285 81.3562 68.0206 81.8624 67.5457C82.3686 67.0707 82.6749 66.4208 82.7192 65.7281C83.0021 61.2644 83.4582 56.9337 84.0441 52.7432L91.3597 60.0589C91.6132 60.3123 91.9141 60.5134 92.2452 60.6505C92.5764 60.7877 92.9313 60.8583 93.2898 60.8583C93.6482 60.8583 94.0032 60.7877 94.3344 60.6505C94.6655 60.5134 94.9664 60.3123 95.2199 60.0589C95.4733 59.8054 95.6744 59.5045 95.8116 59.1733C95.9488 58.8422 96.0194 58.4872 96.0194 58.1288C96.0194 57.7703 95.9488 57.4154 95.8116 57.0842C95.6744 56.753 95.4733 56.4521 95.2199 56.1987L85.1061 46.0865C86.1915 40.0184 87.7598 34.0467 89.7959 28.2283C89.8183 28.1618 89.8392 28.0977 89.8568 28.0279C94.856 14.1942 101.574 6.25986 108.302 6.25986C120.537 6.25986 131.764 32.2616 133.859 65.4564C133.905 66.1792 134.237 66.854 134.78 67.3326C135.324 67.8111 136.035 68.0541 136.758 68.0081C137.481 67.962 138.156 67.6308 138.634 67.0872C139.113 66.5435 139.356 65.8321 139.31 65.1093C136.921 27.2464 124.167 0.799805 108.302 0.799805C98.9695 0.799805 90.571 9.87798 84.6565 26.3591C84.6324 26.4257 84.6116 26.4946 84.5931 26.5643ZM142.427 129.109C142.786 129.11 143.141 129.04 143.472 128.903C143.804 128.766 144.105 128.565 144.358 128.311C144.612 128.057 144.813 127.756 144.95 127.425C145.087 127.093 145.157 126.738 145.156 126.379V74.5097C145.156 73.9563 144.988 73.4158 144.674 72.9601C144.36 72.5044 143.915 72.155 143.398 71.9581C142.88 71.7612 142.315 71.7261 141.778 71.8576C141.24 71.9891 140.755 72.2808 140.387 72.6942L133.827 80.0684L127.268 72.6942C127.011 72.4067 126.697 72.1766 126.346 72.019C125.994 71.8614 125.614 71.7799 125.229 71.7797C124.843 71.7801 124.462 71.862 124.111 72.02C123.759 72.178 123.445 72.4086 123.189 72.6966L116.656 80.0627L110.096 72.6974C109.839 72.4099 109.525 72.1798 109.174 72.0222C108.822 71.8646 108.442 71.783 108.056 71.7829C107.671 71.7821 107.289 71.8632 106.937 72.0209C106.585 72.1785 106.27 72.4091 106.014 72.6974L102.173 77.0257L102.164 77.0329L99.4824 80.0563L92.9547 72.6974C92.6988 72.4087 92.3845 72.1775 92.0326 72.0193C91.6806 71.8611 91.2991 71.7794 90.9132 71.7797C90.5275 71.7801 90.1462 71.8621 89.7943 72.0202C89.4425 72.1784 89.1281 72.4092 88.8717 72.6974L82.332 80.066L75.7827 72.6974C75.5265 72.4084 75.2119 72.177 74.8597 72.0184C74.5076 71.8598 74.1258 71.7776 73.7396 71.7773C73.3531 71.7774 72.971 71.8594 72.6185 72.018C72.266 72.1767 71.9512 72.4082 71.6948 72.6974L65.172 80.0555L58.6274 72.6814C58.3716 72.3959 58.0583 72.1676 57.7082 72.0113C57.3581 71.8551 56.9789 71.7746 56.5955 71.7749H56.5891C56.2044 71.7765 55.8243 71.8595 55.474 72.0185C55.1236 72.1775 54.8109 72.4089 54.5564 72.6974L48.0231 80.0603L41.493 72.6974C41.2375 72.4091 40.9237 72.1782 40.5723 72.02C40.221 71.8618 39.84 71.7799 39.4547 71.7797C38.6779 71.8271 37.9459 72.1593 37.3988 72.7127L30.8783 80.0603L24.349 72.6974C23.9811 72.2839 23.4962 71.992 22.9586 71.8602C22.4209 71.7284 21.856 71.7631 21.3385 71.9596C20.8211 72.1561 20.3755 72.5052 20.0609 72.9606C19.7463 73.416 19.5774 73.9562 19.5767 74.5097V161.87C19.576 162.228 19.6462 162.584 19.7832 162.915C19.9202 163.247 20.1212 163.548 20.3749 163.802C20.6285 164.055 20.9297 164.256 21.2612 164.393C21.5927 164.53 21.948 164.6 22.3067 164.6H44.1469C44.871 164.6 45.5653 164.312 46.0773 163.8C46.5893 163.288 46.8769 162.594 46.8769 161.87C46.8769 161.146 46.5893 160.451 46.0773 159.939C45.5653 159.427 44.871 159.14 44.1469 159.14H25.0367V81.7027L28.8368 85.9869C29.0927 86.2754 29.4069 86.5064 29.7587 86.6644C30.1105 86.8225 30.4918 86.9041 30.8775 86.9038C31.2632 86.9041 31.6445 86.8225 31.9963 86.6644C32.3481 86.5064 32.6623 86.2754 32.9182 85.9869L39.4547 78.6288L45.98 85.9869C46.2434 86.2641 46.5604 86.4849 46.9118 86.6358C47.2631 86.7867 47.6415 86.8645 48.0239 86.8645C48.4063 86.8645 48.7847 86.7867 49.1361 86.6358C49.4875 86.4849 49.8045 86.2641 50.0678 85.9869L56.606 78.6128L63.1256 85.9869C63.3812 86.2766 63.6955 86.5088 64.0476 86.6678C64.3997 86.8269 64.7816 86.9092 65.1679 86.9095C65.5538 86.9096 65.9354 86.828 66.2874 86.6699C66.6395 86.5119 66.954 86.281 67.2103 85.9925L73.7412 78.6344L80.3017 85.9949C80.5578 86.2825 80.8718 86.5126 81.223 86.6702C81.5743 86.8278 81.955 86.9094 82.34 86.9095H82.3456C82.7311 86.9086 83.1121 86.8263 83.4635 86.6678C83.8149 86.5094 84.1289 86.2784 84.3847 85.9901L90.906 78.6264L97.4433 85.9925C97.7023 86.265 98.0131 86.4829 98.3574 86.6334C98.7018 86.7839 99.0729 86.8641 99.4487 86.8691C99.8245 86.8741 100.198 86.8039 100.546 86.6625C100.894 86.5212 101.211 86.3117 101.477 86.0462V159.146H55.0678C54.3438 159.146 53.6494 159.434 53.1374 159.946C52.6254 160.458 52.3378 161.152 52.3378 161.876C52.3378 162.6 52.6254 163.295 53.1374 163.807C53.6494 164.319 54.3438 164.606 55.0678 164.606H142.427C142.786 164.607 143.141 164.536 143.472 164.399C143.804 164.262 144.105 164.061 144.358 163.808C144.612 163.554 144.813 163.253 144.95 162.921C145.087 162.59 145.157 162.235 145.156 161.876V137.301C145.162 136.939 145.096 136.579 144.962 136.242C144.828 135.905 144.628 135.599 144.374 135.341C144.119 135.082 143.816 134.877 143.482 134.737C143.148 134.596 142.789 134.524 142.427 134.524C142.064 134.524 141.705 134.596 141.371 134.737C141.037 134.877 140.734 135.082 140.48 135.341C140.226 135.599 140.026 135.905 139.891 136.242C139.757 136.579 139.691 136.939 139.697 137.301V159.141H106.937V79.8872L108.059 78.6208L114.616 85.9893C114.872 86.2769 115.187 86.5071 115.538 86.6647C115.889 86.8223 116.27 86.9038 116.655 86.9038C117.041 86.9035 117.422 86.8216 117.773 86.6635C118.124 86.5055 118.438 86.2749 118.694 85.9869L125.228 78.6208L131.791 85.9893C132.055 86.265 132.371 86.4844 132.722 86.6343C133.072 86.7842 133.45 86.8615 133.831 86.8615C134.212 86.8615 134.59 86.7842 134.94 86.6343C135.291 86.4844 135.607 86.265 135.871 85.9893L139.7 81.6843V126.379C139.7 126.738 139.77 127.093 139.906 127.424C140.043 127.755 140.244 128.057 140.497 128.31C140.751 128.564 141.051 128.765 141.383 128.902C141.714 129.039 142.069 129.11 142.427 129.109Z" fill="#1A1A1A"/>
<path d="M96.0164 129.109C96.0164 116.251 80.4017 104.54 63.2561 104.54C46.1105 104.54 30.4966 116.251 30.4966 129.109C30.4966 142.759 47.1509 142.759 63.2561 142.759C79.3613 142.759 96.0164 142.759 96.0164 129.109ZM35.9566 129.109C35.9566 123.158 41.3782 116.568 49.6068 112.891V120.92C49.6068 121.644 49.8944 122.338 50.4064 122.85C50.9184 123.362 51.6127 123.65 52.3368 123.65C53.0608 123.65 53.7552 123.362 54.2672 122.85C54.7792 122.338 55.0668 121.644 55.0668 120.92V110.998C56.8597 110.555 58.6858 110.26 60.5269 110.116V118.193C60.5207 118.555 60.5867 118.915 60.7211 119.252C60.8555 119.589 61.0555 119.895 61.3096 120.153C61.5637 120.412 61.8667 120.617 62.201 120.757C62.5352 120.898 62.8941 120.97 63.2565 120.97C63.6189 120.97 63.9778 120.898 64.312 120.757C64.6463 120.617 64.9493 120.412 65.2034 120.153C65.4575 119.895 65.6575 119.589 65.7919 119.252C65.9263 118.915 65.9923 118.555 65.9861 118.193V110.113C67.8272 110.257 69.6533 110.552 71.4462 110.994V120.916C71.4462 121.641 71.7338 122.335 72.2458 122.847C72.7578 123.359 73.4522 123.647 74.1762 123.647C74.9003 123.647 75.5946 123.359 76.1066 122.847C76.6186 122.335 76.9062 121.641 76.9062 120.916V112.891C85.1348 116.568 90.5564 123.158 90.5564 129.109C90.5564 136.116 82.1346 137.299 63.2561 137.299C44.3776 137.299 35.9566 136.116 35.9566 129.109Z" fill="#1A1A1A"/>
</g>
<defs>
<clipPath id="clip0_1145_1132">
<rect width="163.8" height="163.8" fill="white" transform="translate(0.599609 0.799805)"/>
</clipPath>
</defs>
</svg>
