<svg width="377" height="317" viewBox="0 0 377 317" fill="none" xmlns="http://www.w3.org/2000/svg">
<g opacity="0.67" clip-path="url(#clip0_798_1173)">
<path d="M8.63574 42.197L34.3441 71.6104L57.7482 44.8703L60.038 42.1897L62.5752 45.114L85.7343 71.6031L106.849 47.4534L111.431 42.1897L116.5 47.9627L137.122 71.6006L155.863 50.1267L162.818 42.1873L170.43 50.8772L188.596 71.5909L205.045 52.7049L214.288 42.197L224.434 53.8113L239.984 71.6006L254.141 55.3904V307.797H16.8192C14.6488 307.797 12.5673 306.923 11.0326 305.366C9.49792 303.81 8.63574 301.698 8.63574 299.497V42.197Z" fill="#F2E6C7"/>
<path d="M254.136 257.998V307.798H16.8194C14.649 307.798 12.5675 306.924 11.0329 305.367C9.49817 303.811 8.63599 301.699 8.63599 299.498V42.198L34.3443 71.5797L57.7485 44.8542L60.0406 42.198L62.5754 45.1028L74.1081 58.301V158.399C74.1087 184.814 84.4548 210.147 102.87 228.825C121.286 247.503 146.263 257.997 172.307 257.998H254.136Z" fill="#E0CB9D"/>
<path d="M368.704 42.198V299.498C368.704 301.699 367.842 303.811 366.307 305.367C364.772 306.924 362.691 307.798 360.52 307.798H254.136V55.4011L265.669 42.198L291.447 71.6114L317.155 42.198L342.933 71.6114L368.704 42.198Z" fill="#F2E6C7"/>
<path d="M368.704 257.998V299.498C368.704 301.699 367.842 303.811 366.307 305.367C364.772 306.924 362.691 307.798 360.52 307.798H254.136V55.3938L265.669 42.198L291.447 71.5797L303.232 58.1329V191.599C303.229 200.32 304.921 208.956 308.211 217.013C311.501 225.071 316.323 232.391 322.404 238.558C328.484 244.724 335.702 249.614 343.647 252.95C351.591 256.286 360.106 258.001 368.704 257.998Z" fill="#E0CB9D"/>
<path d="M224.518 251.673C224.518 283.762 184.228 262.74 134.512 262.74C84.7965 262.74 44.4849 283.762 44.4849 251.673C44.4849 219.584 84.7772 185.274 134.512 185.274C184.247 185.274 224.518 219.586 224.518 251.673Z" fill="#FBB03B"/>
<path d="M216.704 255.334C212.449 282.32 173.206 263.148 126.326 263.148C76.5719 263.148 37.0918 282.218 37.0918 250.094C37.0918 228.516 55.2582 205.94 82.2615 193.573C74.3328 203.45 69.823 214.406 69.823 225.197C69.823 257.317 110.084 258.395 159.838 258.395C181.433 258.404 201.238 258.239 216.704 255.334Z" fill="#F7931E"/>
<path d="M368.704 208.196C369.779 208.198 370.843 207.984 371.837 207.568C372.83 207.151 373.733 206.54 374.493 205.769C375.253 204.997 375.855 204.082 376.266 203.074C376.676 202.066 376.887 200.986 376.885 199.896V42.1969C376.885 40.5142 376.381 38.8712 375.439 37.4858C374.498 36.1003 373.163 35.0378 371.613 34.4392C370.062 33.8405 368.369 33.734 366.757 34.1337C365.146 34.5334 363.692 35.4205 362.589 36.6774L342.926 59.0968L323.262 36.6774C322.494 35.8033 321.553 35.1037 320.499 34.6245C319.446 34.1453 318.304 33.8974 317.15 33.8969C315.995 33.898 314.853 34.147 313.8 34.6275C312.746 35.1079 311.805 35.809 311.038 36.6847L291.454 59.0798L271.788 36.6871C271.02 35.8129 270.078 35.1133 269.025 34.6341C267.972 34.1549 266.83 33.907 265.676 33.9066C264.519 33.9042 263.376 34.1508 262.32 34.6301C261.265 35.1095 260.322 35.8106 259.554 36.6871L248.04 49.8464L248.014 49.8683L239.975 59.0603L220.407 36.6871C219.64 35.8091 218.698 35.1064 217.643 34.6253C216.588 34.1443 215.445 33.896 214.288 33.8969C213.132 33.898 211.989 34.1472 210.934 34.6281C209.879 35.109 208.937 35.8107 208.168 36.6871L188.565 59.0895L168.933 36.6871C168.165 35.8084 167.222 35.1047 166.167 34.6225C165.111 34.1403 163.967 33.8905 162.809 33.8895C161.65 33.8898 160.505 34.1393 159.448 34.6215C158.392 35.1037 157.448 35.8078 156.68 36.6871L137.127 59.0578L117.509 36.6384C116.742 35.7703 115.803 35.0761 114.754 34.6011C113.704 34.1262 112.568 33.8812 111.419 33.8822H111.399C110.246 33.887 109.107 34.1394 108.057 34.6229C107.007 35.1063 106.069 35.8098 105.306 36.6871L85.7223 59.0725L66.148 36.6871C65.3819 35.8103 64.4412 35.1083 63.3881 34.6273C62.3349 34.1464 61.1931 33.8974 60.038 33.8969C57.7096 34.041 55.5154 35.0509 53.8753 36.7334L34.3297 59.0725L14.7578 36.6871C13.6548 35.4299 12.2013 34.5422 10.5898 34.1416C8.97832 33.741 7.28485 33.8464 5.73372 34.4438C4.1826 35.0412 2.84702 36.1025 1.90389 37.4871C0.960756 38.8716 0.454579 40.5141 0.452405 42.1969V307.797C0.450506 308.888 0.66088 309.968 1.07146 310.976C1.48204 311.984 2.08476 312.899 2.84504 313.67C3.60532 314.442 4.5082 315.053 5.50192 315.469C6.49563 315.886 7.56062 316.099 8.63582 316.097H74.1031C76.2735 316.097 78.355 315.223 79.8897 313.666C81.4244 312.11 82.2865 309.998 82.2865 307.797C82.2865 305.596 81.4244 303.485 79.8897 301.928C78.355 300.371 76.2735 299.497 74.1031 299.497H16.8192V64.0657L28.2102 77.0909C28.9773 77.9681 29.9192 78.6703 30.9737 79.1508C32.0282 79.6314 33.1713 79.8795 34.3273 79.8787C35.4834 79.8795 36.6264 79.6314 37.6809 79.1508C38.7354 78.6703 39.6774 77.9681 40.4445 77.0909L60.038 54.7202L79.598 77.0909C80.3874 77.9338 81.3377 78.6051 82.3909 79.0637C83.4442 79.5224 84.5785 79.7589 85.7247 79.7589C86.871 79.7589 88.0052 79.5224 89.0585 79.0637C90.1118 78.6051 91.0621 77.9338 91.8515 77.0909L111.45 54.6714L130.993 77.0909C131.759 77.9719 132.701 78.6776 133.757 79.1611C134.812 79.6447 135.957 79.8951 137.115 79.8958C138.272 79.8963 139.415 79.6481 140.471 79.1676C141.526 78.6871 142.469 77.9851 143.237 77.108L162.814 54.7372L182.479 77.1153C183.247 77.9895 184.188 78.6892 185.241 79.1684C186.294 79.6476 187.435 79.8955 188.589 79.8958H188.606C189.762 79.8932 190.904 79.6429 191.957 79.1612C193.01 78.6795 193.951 77.9773 194.718 77.1006L214.266 54.7129L233.862 77.108C234.638 77.9363 235.57 78.5988 236.602 79.0565C237.635 79.5142 238.747 79.7578 239.873 79.773C241 79.7882 242.118 79.5747 243.162 79.1451C244.206 78.7154 245.155 78.0783 245.952 77.2712V299.516H106.839C104.669 299.516 102.587 300.391 101.053 301.948C99.5179 303.504 98.6558 305.615 98.6558 307.817C98.6558 310.018 99.5179 312.129 101.053 313.686C102.587 315.242 104.669 316.117 106.839 316.117H368.704C369.779 316.118 370.843 315.905 371.837 315.488C372.83 315.072 373.733 314.46 374.493 313.689C375.253 312.918 375.855 312.002 376.266 310.995C376.676 309.987 376.887 308.907 376.885 307.817V233.101C376.903 231.999 376.705 230.905 376.303 229.882C375.9 228.858 375.3 227.926 374.538 227.14C373.777 226.355 372.868 225.73 371.866 225.304C370.864 224.878 369.789 224.659 368.702 224.659C367.616 224.659 366.54 224.878 365.538 225.304C364.536 225.73 363.628 226.355 362.867 227.14C362.105 227.926 361.505 228.858 361.102 229.882C360.699 230.905 360.502 231.999 360.52 233.101V299.502H262.319V58.5461L265.683 54.6958L285.339 77.0982C286.107 77.9726 287.048 78.6725 288.102 79.1517C289.155 79.6309 290.297 79.8787 291.451 79.8787C292.606 79.8776 293.748 79.6286 294.802 79.1481C295.855 78.6677 296.796 77.9666 297.564 77.0909L317.148 54.6958L336.823 77.0982C337.612 77.9363 338.561 78.6035 339.612 79.0592C340.663 79.515 341.794 79.75 342.936 79.75C344.079 79.75 345.21 79.515 346.261 79.0592C347.312 78.6035 348.261 77.9363 349.05 77.0982L360.53 64.0096V199.896C360.528 200.986 360.738 202.065 361.148 203.072C361.558 204.08 362.16 204.995 362.919 205.766C363.678 206.537 364.58 207.148 365.573 207.565C366.565 207.982 367.629 208.197 368.704 208.196Z" fill="#1A1A1A"/>
<path d="M229.594 253.647C229.594 214.554 182.788 178.948 131.393 178.948C79.9984 178.948 33.1948 214.554 33.1948 253.647C33.1948 295.147 86.2822 268.668 134.559 268.668C182.835 268.668 229.594 295.147 229.594 253.647ZM49.5617 253.647C49.5617 235.553 74.2516 212.632 98.9172 201.452L90.4787 193.41C90.4787 195.612 91.3409 197.723 92.8756 199.28C94.4103 200.836 96.7468 201.452 98.9172 201.452C101.088 201.452 102.914 200.836 104.449 199.28C105.136 198.582 106.846 195.612 106.846 193.41L98.9172 201.452C104.291 200.106 120.873 195.549 138.664 196.475L131.393 187.45C131.375 188.552 131.573 189.646 131.975 190.669C132.378 191.693 132.978 192.625 133.74 193.41C134.501 194.196 135.41 194.82 136.412 195.247C137.414 195.673 137.578 196.475 138.664 196.475C139.751 196.475 141.738 195.673 142.74 195.247C143.742 194.82 144.65 194.196 145.411 193.41C146.173 192.625 146.773 191.693 147.176 190.669C147.579 189.646 147.776 188.552 147.758 187.45L138.664 196.475C144.183 196.914 158.5 199.853 163.786 201.881L159.452 194.557C159.452 196.758 160.314 198.869 161.849 200.426C163.383 201.983 165.465 202.857 167.635 202.857C169.806 202.857 171.887 201.983 173.422 200.426C174.957 198.869 175.819 196.758 175.819 194.557L165.024 202.423C181.781 208.847 213.228 235.553 213.228 253.647C213.228 274.95 191.148 248.906 134.559 248.906C77.9691 248.906 49.5617 274.95 49.5617 253.647Z" fill="#1A1A1A"/>
<path d="M196.001 114.656L166.897 128.696C161.838 131.136 161.569 138.24 166.428 141.057L193.501 156.748" stroke="black" stroke-width="16" stroke-linecap="round"/>
<path d="M65.8171 155.705L94.808 141.832C99.8932 139.399 100.163 132.259 95.2755 129.449L68.3171 113.95" stroke="black" stroke-width="16" stroke-linecap="round"/>
</g>
<defs>
<clipPath id="clip0_798_1173">
<rect width="377" height="317" fill="white"/>
</clipPath>
</defs>
</svg>
